<svg width="1622" height="344" viewBox="0 0 1622 344" fill="none" xmlns="http://www.w3.org/2000/svg" xmlns:xlink="http://www.w3.org/1999/xlink">
 <path d="M0 9.15001C15.64 5.61001 39.84 3.54001 61.67 3.54001C120.67 3.54001 156.1 23.02 156.1 72.59C156.1 102.98 143.1 123.05 122.76 133.97L172 213.64C168.16 216.3 159.9 217.77 148.39 217.77C135.39 217.77 126.85 216.3 120.65 213.64L79.65 144.59H75C65 144.59 51.69 143.7 44.61 142.52V213.93C40.48 216.29 33.1 217.77 22.48 217.77C12.15 217.77 4.48 216.3 0.06 213.93L0 9.15001ZM44.26 43.38V105.05C52.6487 106.437 61.1375 107.129 69.64 107.12C95.31 107.12 111 98 111 75C111 51.39 94.48 41.66 65 41.66C58.0493 41.6161 51.1085 42.1917 44.26 43.38V43.38Z" fill="#F1545B">
 </path>
 <path d="M229 157C230.77 177.66 245.52 187.69 274.74 187.69C293.63 187.69 310.15 183.56 320.74 178.84C321.62 190.05 316.9 204.51 310.12 212.18C300.38 217.79 283.86 222.51 263.5 222.51C211.86 222.51 184.42 192.71 184.42 144.9C184.42 95.62 213.93 63.75 260.26 63.75C303.34 63.75 323.11 90.31 323.11 129.26C323.08 138.68 321.589 148.038 318.69 157H229ZM283 126C285.36 110.66 279.75 95.61 258.51 95.61C240.21 95.61 229 107.41 227.82 126H283Z" fill="#F1545B">
 </path>
 <path d="M414.6 184.72C416.652 171.863 419.511 159.148 423.16 146.65L445.58 70.52C448.83 69.34 453.84 67.86 463.29 67.86C475.39 67.86 483.65 70.22 488.96 73.76L442.34 213.64C426.7 218.07 404.86 219.54 383.91 219.54L335.52 73.77C340.83 70.23 349.09 67.87 361.52 67.87C370.37 67.87 376.52 69.34 379.23 70.53L403.13 146.66C407.009 159.136 410.066 171.854 412.28 184.73L414.6 184.72Z" fill="#F1545B">
 </path>
 <path d="M543.85 157C545.62 177.66 560.37 187.69 589.59 187.69C608.48 187.69 625 183.56 635.59 178.84C636.47 190.05 631.75 204.51 624.97 212.18C615.23 217.79 598.71 222.51 578.35 222.51C526.71 222.51 499.27 192.71 499.27 144.9C499.27 95.62 528.78 63.75 575.11 63.75C618.19 63.75 637.96 90.31 637.96 129.26C637.936 138.678 636.452 148.036 633.56 157H543.85ZM597.85 126C600.21 110.66 594.6 95.61 573.36 95.61C555.06 95.61 543.85 107.41 542.67 126H597.85Z" fill="#F1545B">
 </path>
 <path d="M713.82 214.23C709.98 216.3 702.9 217.77 692.57 217.77C682.24 217.77 675.16 216.3 671.03 214.23V73.48C679.03 69.05 691.69 66.69 705.85 66.69L708.21 90.89H710.57C717.65 75.55 732.7 63.74 759.57 63.74C782 63.74 808.57 71.74 808.57 120.4V214.24C804.73 216.31 797.65 217.78 787.32 217.78C776.99 217.78 769.91 216.31 765.78 214.24V128.07C765.78 112.73 760.47 102.99 743.06 102.99C727.72 102.99 719.16 110.66 713.85 119.81L713.82 214.23Z" fill="#F1545B">
 </path>
 <path d="M942.22 198.89C935.73 212.17 921.86 222.5 895.89 222.5C872.89 222.5 846.89 214.5 846.89 165.5V75.5C856.89 69.89 871.09 66.65 889.68 66.65V158.13C889.68 174.06 894.68 182.92 911.81 182.92C925.68 182.92 934.81 177.02 940.14 170.23V72C944.27 69.93 951.35 68.46 961.68 68.46C972.01 68.46 979.09 69.94 982.93 72V212.76C975.26 217.19 963.16 219.55 949.59 219.55L944.59 198.89H942.22Z" fill="#F1545B">
 </path>
 <path d="M1059.66 157C1061.43 177.66 1076.18 187.69 1105.4 187.69C1124.29 187.69 1140.81 183.56 1151.4 178.84C1152.28 190.05 1147.56 204.51 1140.78 212.18C1131.04 217.79 1114.52 222.51 1094.16 222.51C1042.52 222.51 1015.08 192.71 1015.08 144.9C1015.08 95.62 1044.59 63.75 1090.92 63.75C1134 63.75 1153.77 90.31 1153.77 129.26C1153.74 138.68 1152.24 148.038 1149.34 157H1059.66ZM1113.66 126C1116.02 110.66 1110.41 95.61 1089.17 95.61C1070.87 95.61 1059.66 107.41 1058.48 126H1113.66Z" fill="#F1545B">
 </path>
 <path d="M1296.62 39.25C1255.01 39.25 1226.39 60.5 1226.39 111.84C1226.39 163.18 1254.72 183.55 1294.55 183.55C1311.56 183.386 1328.38 179.993 1344.12 173.55C1344.71 184.47 1339.4 203.35 1332.32 212.8C1319.63 219 1301.32 223.42 1280.68 223.42C1217.53 223.42 1180.35 182.7 1180.35 114.83C1180.36 41.61 1223.73 0 1287.47 0C1304.29 0 1321.4 3 1332.32 9.44C1339.11 19.18 1342.06 36.59 1340.58 49.57C1326.42 42.79 1313.44 39.25 1296.62 39.25Z" fill="#F1545B">
 </path>
 <path d="M1448.89 201.25C1442.4 214.25 1428.53 222.5 1408.17 222.5C1382.17 222.5 1359.78 209.5 1359.78 175.29C1359.78 139.29 1385.78 125.42 1419.98 125.42C1429.07 125.308 1438.13 126.603 1446.83 129.26V125.13C1446.83 107.13 1437.98 100.64 1418.5 100.64C1401.96 100.629 1385.69 104.886 1371.28 113C1367.74 101.49 1369.21 83.2 1376 73.46C1386.63 67.56 1404.92 63.72 1426.76 63.72C1469.25 63.72 1489.61 78.72 1489.61 122.44V173.49C1489.61 182.64 1493.74 184.7 1499.61 184.7C1504.09 184.78 1508.5 183.549 1512.3 181.16C1513.48 192.96 1509.94 207.42 1504.63 215.68C1498.43 219.81 1490.17 222.47 1480.14 222.47C1463.03 222.47 1454.14 215.09 1451.22 201.22L1448.89 201.25ZM1447.71 157.58C1441.5 155.163 1434.89 153.962 1428.23 154.04C1411.12 154.04 1402.56 161.12 1402.56 172.34C1402.56 183.85 1411.12 187.98 1422.92 187.98C1432.36 187.98 1441.81 184.98 1447.71 177.65V157.58Z" fill="#F1545B">
 </path>
 <path d="M1579.38 106H1618.77C1620.55 102.44 1621.44 95 1621.44 87.59C1621.44 80.18 1620.55 72.75 1618.77 69.18H1579.38V25.22C1562.79 25.52 1547.1 29.38 1536.43 37.09V69.15H1519.55C1515.7 78.65 1513.63 93.15 1513.63 105.96H1536.44L1535.86 210.26C1535.86 221.75 1533.86 236.44 1527.29 241.05C1496.02 263.18 1432.42 252.47 1374.06 246.4C1290.22 237.68 1217.81 226.22 1205.78 272.61C1199.42 297.12 1207.68 312.78 1215.71 321.61C1231.86 339.34 1260.36 343.38 1282.98 343.38C1293.61 343.368 1304.23 342.536 1314.74 340.89C1320.09 340.021 1324.87 337.064 1328.04 332.668C1331.21 328.273 1332.51 322.799 1331.64 317.45C1329.84 306.31 1319.29 298.45 1308.21 300.51C1284.96 304.85 1252.14 314.51 1239.55 300.68C1235.29 296.01 1236.03 284.54 1239.55 280.99C1248.91 266.99 1309.16 272.34 1369.82 280.53C1436.82 287.53 1506.19 297.34 1545.58 277.64C1561 269.93 1579.38 251.98 1579.38 210.26V106Z" fill="#F1545B">
 </path>
</svg>