<svg width="149" height="40" viewBox="0 0 149 40" fill="none" xmlns="http://www.w3.org/2000/svg">
<g clip-path="url(#clip0_147_3774)">
<path d="M37.2081 25.8149V10H33.0996V29.2913C33.1004 29.445 33.1678 29.5921 33.2871 29.7005C33.4063 29.8088 33.5676 29.8696 33.7358 29.8696H48.8216V26.1186H37.5416C37.4543 26.1186 37.3705 26.0868 37.3089 26.0305C37.2472 25.9741 37.2124 25.8977 37.2124 25.818" fill="#3D3D5C"/>
<path d="M82.1736 10H72.6192C72.4524 10 72.2924 10.0622 72.1745 10.1729C72.0564 10.2836 71.9902 10.4337 71.9902 10.5903V29.2823C71.9902 29.4389 72.0564 29.589 72.1745 29.6997C72.2924 29.8104 72.4524 29.8726 72.6192 29.8726H82.1736C83.971 29.8707 85.6944 29.1998 86.9655 28.007C88.2365 26.8141 88.9515 25.1969 88.9535 23.51V16.3626C88.9515 14.6757 88.2365 13.0584 86.9655 11.8656C85.6944 10.6728 83.971 10.0019 82.1736 10ZM84.95 23.51C84.9477 24.2004 84.6545 24.8619 84.1344 25.3501C83.6141 25.8383 82.9091 26.1135 82.1736 26.1155H76.314C76.229 26.1155 76.1476 26.0839 76.0874 26.0274C76.0275 25.9712 75.9936 25.8946 75.9936 25.8149V14.0577C75.9936 13.978 76.0275 13.9015 76.0874 13.8451C76.1476 13.7887 76.229 13.7571 76.314 13.7571H82.1736C82.9091 13.7592 83.6141 14.0344 84.1344 14.5225C84.6545 15.0107 84.9477 15.6722 84.95 16.3626V23.51Z" fill="#3D3D5C"/>
<path d="M102.446 10H92.8926C92.7258 10 92.5658 10.0622 92.4479 10.1729C92.3298 10.2836 92.2637 10.4338 92.2637 10.5903V29.2843C92.2637 29.4408 92.3298 29.591 92.4479 29.7017C92.5658 29.8124 92.7258 29.8746 92.8926 29.8746H102.446C104.244 29.873 105.967 29.2022 107.238 28.0091C108.51 26.8161 109.225 25.1986 109.227 23.5113V16.3633C109.225 14.6761 108.509 13.0587 107.238 11.8658C105.967 10.6728 104.243 10.0019 102.446 10ZM105.222 23.5113C105.22 24.2018 104.927 24.8634 104.407 25.3516C103.886 25.8398 103.181 26.115 102.446 26.1172H96.5864C96.5015 26.1172 96.4199 26.0854 96.3599 26.0291C96.2998 25.9727 96.2661 25.8963 96.2661 25.8164V14.0571C96.2661 13.9774 96.2998 13.9009 96.3599 13.8445C96.4199 13.7881 96.5015 13.7564 96.5864 13.7564H102.446C103.181 13.7585 103.886 14.0338 104.407 14.522C104.927 15.0102 105.22 15.6718 105.222 16.3623V23.5113Z" fill="#3D3D5C"/>
<path d="M112.537 10.5903V29.2823C112.538 29.4381 112.61 29.5874 112.737 29.6975C112.864 29.8074 113.035 29.8693 113.214 29.8696H129.087V26.1195H117.2C117.108 26.1195 117.02 26.0879 116.956 26.0315C116.891 25.9752 116.854 25.8986 116.854 25.8189V22.121C116.854 22.0413 116.891 21.9648 116.956 21.9084C117.02 21.852 117.108 21.8204 117.2 21.8204H126.7V18.0593H117.2C117.108 18.0593 117.02 18.0276 116.956 17.9712C116.891 17.9148 116.854 17.8384 116.854 17.7586V14.0607C116.854 13.981 116.891 13.9045 116.956 13.8481C117.02 13.7917 117.108 13.7601 117.2 13.7601H129.087V10H113.214C113.035 10.0003 112.862 10.0626 112.735 10.1732C112.608 10.2839 112.537 10.4339 112.537 10.5903Z" fill="#3D3D5C"/>
<path d="M66.4332 10H54.386C53.7881 10.0005 53.2148 10.2187 52.7921 10.6067C52.3692 10.9947 52.1315 11.5208 52.1309 12.0694V29.8726H56.2205V24.001C56.2205 23.9213 56.2551 23.8448 56.3165 23.7884C56.378 23.732 56.4613 23.7004 56.5481 23.7004H64.2632C64.3501 23.7004 64.4334 23.732 64.4949 23.7884C64.5563 23.8448 64.5909 23.9213 64.5909 24.001V29.8746H68.6805V12.0694C68.6799 11.5208 68.4422 10.9947 68.0193 10.6067C67.5966 10.2187 67.0233 10.0005 66.4254 10H66.4332ZM64.5909 19.6377C64.5909 19.7174 64.5563 19.7939 64.4949 19.8502C64.4334 19.9066 64.3501 19.9383 64.2632 19.9383H56.5525C56.4656 19.9383 56.3823 19.9066 56.3208 19.8502C56.2594 19.7939 56.225 19.7174 56.225 19.6377V14.5808C56.2251 14.3625 56.3199 14.1532 56.4882 13.999C56.6565 13.8447 56.8846 13.7581 57.1225 13.7581H63.7063C63.9439 13.7586 64.1716 13.8454 64.3396 13.9996C64.5076 14.1538 64.6023 14.3628 64.6028 14.5808L64.5909 19.6377Z" fill="#3D3D5C"/>
<path d="M144.226 23.6871H145.67C146.539 23.6855 147.372 23.3722 147.987 22.8159C148.601 22.2596 148.946 21.5057 148.946 20.7197V12.9655C148.945 12.1793 148.599 11.4256 147.984 10.8697C147.37 10.3138 146.536 10.0011 145.667 10H134.69C134.082 10.0005 133.499 10.2193 133.069 10.6082C132.639 10.9971 132.397 11.5244 132.396 12.0744V29.9205H136.557V23.9935C136.556 23.9127 136.591 23.8349 136.653 23.777C136.715 23.7191 136.8 23.6857 136.89 23.6841H139.001C139.042 23.6841 139.084 23.6913 139.123 23.7052C139.202 23.722 139.272 23.7641 139.321 23.8238L143.822 29.9174H148.192L143.937 24.1583C143.912 24.1258 143.894 24.0892 143.885 24.0505C143.875 24.0119 143.874 23.9719 143.882 23.9329C143.89 23.8939 143.906 23.8567 143.929 23.8233C143.953 23.7899 143.984 23.761 144.019 23.7384C144.077 23.7011 144.147 23.6821 144.218 23.6841L144.226 23.6871ZM136.887 20.1099C136.798 20.1099 136.713 20.0781 136.651 20.0216C136.588 19.9651 136.553 19.8884 136.553 19.8085V14.0685C136.553 14.0283 136.562 13.9885 136.579 13.9515C136.596 13.9144 136.621 13.8807 136.652 13.8525C136.683 13.8209 136.722 13.7965 136.766 13.7813C136.81 13.7661 136.857 13.7606 136.903 13.7651L144.178 13.7852C144.42 13.7862 144.651 13.874 144.822 14.0292C144.992 14.1843 145.087 14.3943 145.087 14.6129L145.068 19.2902C145.066 19.5078 144.969 19.7158 144.798 19.8692C144.627 20.0227 144.397 20.1091 144.156 20.1099H136.887Z" fill="#3D3D5C"/>
<path d="M15.1505 12.8791C15.1377 12.9482 15.0997 13.0111 15.043 13.0569C14.9837 13.1031 14.9101 13.13 14.8332 13.1338H7.5036C7.47713 13.1258 7.45272 13.1127 7.43195 13.0953C7.40819 13.081 7.38879 13.0611 7.37564 13.0377C7.36913 13.014 7.36913 12.9892 7.37564 12.9656C7.36779 12.9388 7.36779 12.9106 7.37564 12.8839L7.88748 10H3.72621L0 29.865H4.17151L4.70894 26.9811C4.72665 26.9166 4.76616 26.8594 4.82154 26.8177C4.8785 26.771 4.95071 26.7439 5.02629 26.7408H12.3507C12.4069 26.755 12.4547 26.7896 12.4838 26.8369C12.4954 26.8611 12.5014 26.8873 12.5014 26.9138C12.5014 26.9403 12.4954 26.9665 12.4838 26.9907L11.972 29.8746H16.1333L19.8595 10.0288H15.688L15.1505 12.8791ZM14.2957 17.4596L13.3642 22.4102C13.339 22.5498 13.2608 22.6762 13.1441 22.7659C13.0299 22.8583 12.8853 22.9109 12.7346 22.9149H6.0039C5.96675 22.922 5.92845 22.922 5.8913 22.9149C5.77885 22.8898 5.6814 22.8242 5.62002 22.7322C5.58928 22.6862 5.56887 22.6347 5.56008 22.581C5.55127 22.5273 5.55425 22.4724 5.56884 22.4198L6.49527 17.4692C6.52595 17.329 6.60514 17.2023 6.72049 17.1087C6.8333 17.0173 6.97594 16.9648 7.12484 16.9597H13.8504C13.8912 16.9551 13.9325 16.9551 13.9733 16.9597C14.0295 16.9701 14.0822 16.9932 14.1268 17.027C14.1747 17.0568 14.2149 17.0962 14.2446 17.1424C14.273 17.1883 14.2921 17.2388 14.3009 17.2914C14.3152 17.3517 14.3135 17.4144 14.2957 17.474V17.4596Z" fill="#3D3D5C"/>
</g>
<defs>
<clipPath id="clip0_147_3774">
<rect width="149" height="20" fill="white" transform="translate(0 10)"/>
</clipPath>
</defs>
</svg>
