<svg width="149" height="40" viewBox="0 0 149 40" fill="none" xmlns="http://www.w3.org/2000/svg">
<mask id="mask0_147_3775" style="mask-type:luminance" maskUnits="userSpaceOnUse" x="27" y="0" width="96" height="30">
<path d="M122.917 0H27V29.9595H122.917V0Z" fill="white"/>
</mask>
<g mask="url(#mask0_147_3775)">
<path d="M63.1564 13.0942V22.713C63.1564 26.9093 59.9176 29.9545 54.9986 29.9545C50.0797 29.9545 47.0137 26.9086 47.0137 22.8129V13.0942H52.4675V22.2984C52.4675 23.9339 53.5586 25.018 54.9945 25.018C56.6247 25.018 57.6983 23.9514 57.6983 22.2984V13.0942H63.1564Z" fill="#3D3D5C"/>
<path d="M77.3082 29.6115V20.424C77.3082 18.5832 75.8345 17.7046 74.5201 17.7046C73.2057 17.7046 71.7489 18.5832 71.7489 20.424V29.6115H66.2949V13.0944H71.2988L71.4716 14.8306C72.6511 13.3496 74.6599 12.7471 76.6145 12.7471C79.748 12.7471 82.7634 14.9312 82.7634 18.8718V29.6073H77.3096V29.6115H77.3082Z" fill="#3D3D5C"/>
<path d="M96.9527 29.6115V20.424C96.9527 18.5832 95.4784 17.7046 94.1649 17.7046C92.8509 17.7046 91.3935 18.5832 91.3935 20.424V29.6115H85.9395V13.0944H90.9429L91.1153 14.8306C92.2951 13.3496 94.304 12.7471 96.2584 12.7471C99.392 12.7471 102.407 14.9312 102.407 18.8718V29.6073H96.9533L96.9527 29.6115Z" fill="#3D3D5C"/>
<path d="M117.637 29.612L117.464 27.8758C116.512 29.0471 114.899 29.9592 112.561 29.9592C108.127 29.9592 104.871 26.3109 104.871 21.3743C104.871 16.4378 108.127 12.7559 112.561 12.7559C114.899 12.7559 116.512 13.6847 117.464 14.8393L117.637 13.1032H122.918V29.6202H117.637V29.612ZM110.274 21.3701C110.274 23.6082 111.748 25.173 113.859 25.173C115.969 25.173 117.443 23.6082 117.443 21.3701C117.443 19.1322 115.969 17.584 113.859 17.5673C111.745 17.5673 110.274 19.1322 110.274 21.3701Z" fill="#3D3D5C"/>
<path d="M43.341 7.30451C45.3714 7.30451 47.0179 5.66898 47.0179 3.65191C47.0179 1.6348 45.3714 0 43.341 0C41.3105 0 39.6641 1.63549 39.6641 3.6526C39.6641 5.66969 41.3105 7.30522 43.341 7.30522V7.30451Z" fill="#3D3D5C"/>
<path d="M39.1675 21.8172C41.6607 20.353 43.3752 17.6377 43.3752 14.6085C43.3752 9.67196 39.4961 6.24512 34.4212 6.24512H27.1011L30.7949 11.0104H34.0253C36.1224 11.0104 37.5421 12.4369 37.5421 14.6043C37.5421 15.9141 36.9692 17.0519 35.9715 17.6838L33.5836 14.6043H27L38.3544 29.59H45.1943L39.1675 21.8123V21.8166V21.8172Z" fill="#3D3D5C"/>
<path d="M86.7326 6.01054C86.539 5.90221 86.3933 5.75403 86.2968 5.56534H86.275V6.06434H85.6641V0.855957H86.2821V2.83113H86.3039C86.4004 2.64312 86.5444 2.49565 86.7364 2.39011C86.9279 2.28387 87.1352 2.23075 87.3577 2.23075C87.6681 2.23075 87.9419 2.31042 88.1792 2.46979C88.4164 2.62914 88.5997 2.85839 88.7279 3.15683C88.8566 3.45597 88.9204 3.80334 88.9204 4.19893C88.9204 4.59452 88.8561 4.9419 88.7279 5.24103C88.5997 5.5402 88.4192 5.7701 88.1868 5.93158C87.9544 6.09301 87.6806 6.17408 87.3653 6.17408C87.1379 6.17408 86.9262 6.11957 86.7326 6.01124V6.01054ZM87.9893 5.23265C88.183 4.97684 88.2801 4.63227 88.2801 4.19824C88.2801 3.90888 88.2364 3.65796 88.1497 3.44548C88.0624 3.23301 87.9392 3.07086 87.7788 2.95694C87.619 2.84372 87.4368 2.7871 87.2339 2.7871C87.031 2.7871 86.8428 2.84161 86.6852 2.94995C86.5275 3.05828 86.3928 3.22602 86.281 3.45249V4.95029C86.3928 5.17743 86.527 5.34448 86.6852 5.45283C86.8422 5.56116 87.0255 5.61568 87.2339 5.61568C87.5442 5.61568 87.7957 5.48775 87.9904 5.23195L87.9893 5.23265Z" fill="#3D3D5C" fill-opacity="0.6"/>
<path d="M89.4985 7.28748V6.73043C89.6005 6.77376 89.7074 6.79543 89.8181 6.79543C89.9485 6.79543 90.0619 6.7591 90.1558 6.6871C90.2507 6.6144 90.3314 6.50118 90.3996 6.3467L90.7847 5.45697L90.7918 5.95603L89.2148 2.33838H89.913L90.7268 4.3422C90.7699 4.45823 90.8136 4.57494 90.8572 4.69307C90.9008 4.81118 90.9423 4.92791 90.981 5.04393H91.0094C91.0241 4.98591 91.0481 4.91113 91.0825 4.81957C91.1408 4.6651 91.2014 4.50575 91.2647 4.3422L92.0496 2.33838H92.7396L90.9876 6.46975C90.8959 6.6871 90.7988 6.86042 90.6974 6.99042C90.5954 7.12046 90.4803 7.21619 90.3516 7.2763C90.2234 7.33641 90.0696 7.36649 89.8907 7.36649C89.745 7.36649 89.6147 7.33988 89.4979 7.28678L89.4985 7.28748Z" fill="#3D3D5C" fill-opacity="0.6"/>
<path d="M95.276 5.93868C94.8206 5.79192 94.4306 5.57809 94.1055 5.29849L95.0289 4.21306C95.2951 4.41574 95.5837 4.56671 95.894 4.66526C96.2044 4.7645 96.5186 4.81344 96.8387 4.81344C96.9893 4.81344 97.1006 4.79387 97.1731 4.75542C97.2462 4.71698 97.2822 4.66386 97.2822 4.59607V4.58139C97.2822 4.50451 97.232 4.443 97.1333 4.39687C97.0335 4.35075 96.8437 4.29901 96.5622 4.24101C96.1067 4.14945 95.7266 4.04601 95.4217 3.92999C95.1162 3.81397 94.868 3.64902 94.6766 3.43444C94.4846 3.21988 94.3891 2.9438 94.3891 2.60621V2.59154C94.3891 2.26374 94.4742 1.96949 94.6433 1.70879C94.8129 1.44809 95.0627 1.24331 95.3917 1.09373C95.7211 0.944169 96.1166 0.869383 96.5764 0.869383C97.0706 0.869383 97.508 0.925995 97.8876 1.03922C98.2684 1.15245 98.6082 1.32718 98.9087 1.56411L98.0731 2.72154C97.8407 2.5524 97.5876 2.42589 97.3138 2.34202C97.04 2.25745 96.7744 2.21552 96.518 2.21552C96.3964 2.21552 96.3042 2.23508 96.2382 2.27353C96.1727 2.31197 96.1395 2.363 96.1395 2.4252V2.43987C96.1395 2.51256 96.188 2.57267 96.2851 2.62089C96.3817 2.66912 96.5638 2.72015 96.83 2.77256C97.5615 2.90256 98.1124 3.08988 98.4833 3.3331C98.8542 3.57703 99.0391 3.93698 99.0391 4.41505V4.42973C99.0391 4.78687 98.9458 5.0951 98.7593 5.3558C98.5722 5.61653 98.3071 5.81499 97.9635 5.95269C97.6198 6.0904 97.2151 6.15887 96.7498 6.15887C96.2218 6.15887 95.7298 6.08551 95.2749 5.93803L95.276 5.93868ZM100.756 2.40422H99.2371V0.964433H103.998V2.40422H102.486V6.0652H100.756V2.40422ZM104.448 0.964433H106.963C107.807 0.964433 108.429 1.15734 108.831 1.54314C108.986 1.70251 109.102 1.87933 109.18 2.07502C109.257 2.27004 109.296 2.49858 109.296 2.75859V2.77326C109.296 3.13531 109.209 3.44703 109.035 3.71053C108.861 3.97332 108.61 4.1823 108.286 4.33606L109.296 5.79751L111.942 0.747765L114.733 6.0652H112.879L111.942 4.20607L111.005 6.0652H107.509L106.542 4.61074H106.171V6.0652H104.449L104.448 0.964433ZM107.406 3.2653C107.523 3.17864 107.58 3.05563 107.58 2.89628V2.8816C107.58 2.72224 107.522 2.60062 107.406 2.51605C107.29 2.43148 107.128 2.38955 106.919 2.38955H106.17V3.39531H106.912C107.125 3.39531 107.29 3.35198 107.406 3.2653ZM113.249 0.957445H115.095L116.032 2.81659L116.97 0.957445H118.823L116.032 6.2749L113.249 0.957445H113.249ZM120.125 0.74707L122.916 6.06449H121.062L120.125 4.20536L119.188 6.06449H117.342L120.126 0.74707H120.125Z" fill="#3D3D5C"/>
</g>
</svg>
