<svg width="80" height="80" viewBox="0 0 80 80" fill="none" xmlns="http://www.w3.org/2000/svg">
<rect x="11" y="11" width="58" height="58" rx="29" fill="white"/>
<path d="M37.2039 25.3065C37.4078 25.7276 37.5989 26.1535 37.7773 26.5844C37.9557 27.0152 38.1213 27.451 38.2742 27.8916C38.4271 28.3323 38.566 28.7766 38.6909 29.2246C39.4057 31.3691 40.1664 34.0276 40.9845 37.1305C37.892 37.0828 34.7689 37.046 31.7376 37.0167L30.2048 36.9946C31.9364 30.2234 34.0503 25.0862 35.5946 23.8744C35.6252 23.8524 35.657 23.8328 35.6902 23.8156C35.7233 23.801 35.7577 23.7875 35.7934 23.7753C35.8291 23.763 35.866 23.7532 35.9042 23.7459C35.9399 23.7385 35.9769 23.7349 36.0151 23.7349C36.0712 23.7373 36.1247 23.7471 36.1756 23.7642C36.2292 23.7814 36.2801 23.8034 36.3285 23.8303C36.377 23.8597 36.4203 23.894 36.4585 23.9332C36.4967 23.9699 36.5311 24.0115 36.5617 24.058C36.7885 24.4693 37.0026 24.8854 37.2039 25.3065Z" fill="#1E61F0"/>
<path fill-rule="evenodd" clip-rule="evenodd" d="M69 40.0018C69 56.0156 56.0147 69 39.9981 69C23.9853 69 11 56.0193 11 40.0018C11 23.9844 23.9853 11 39.9981 11C56.0147 11 69 23.9844 69 40.0018ZM61.1446 40.2075C61.2287 40.0863 61.2975 39.9578 61.3434 39.8182C61.3892 39.6824 61.4198 39.5392 61.4236 39.3959C61.4313 39.2527 61.4198 39.1059 61.3854 38.9663C61.351 38.8268 61.3013 38.6909 61.2287 38.5661C61.1561 38.4412 61.0681 38.3274 60.9611 38.2282C60.8579 38.1254 60.7356 38.041 60.6056 37.9712C60.4756 37.9014 60.338 37.85 60.1928 37.8206H60.1278C60.1074 37.8182 60.087 37.8157 60.0666 37.8133C60.0488 37.8108 60.0297 37.8084 60.0093 37.806C59.9915 37.806 59.9723 37.8047 59.952 37.8023C59.9316 37.8023 59.9125 37.8023 59.8946 37.8023L59.6882 37.7839C54.8335 37.4314 49.8374 37.2919 45.1471 37.1964L45.1395 37.1633C42.8574 28.6038 40.0096 19.8533 36.1679 19.8533C32.5861 19.8643 29.3522 25.6221 26.5694 36.943C24.6046 36.921 22.8041 36.8953 21.1107 36.8659H20.8508C20.7998 36.8635 20.7476 36.8622 20.6941 36.8622C20.6431 36.8647 20.5921 36.8671 20.5412 36.8696C20.4876 36.8696 20.4354 36.872 20.3844 36.8769C20.3309 36.8818 20.2787 36.8867 20.2277 36.8916C19.7537 36.9944 19.3332 37.2515 19.0351 37.615C18.7331 37.9822 18.5764 38.4375 18.584 38.9039C18.5916 39.3702 18.7675 39.8182 19.0771 40.1744C19.3906 40.5306 19.8187 40.773 20.2965 40.8611L20.3156 40.8831H25.6443C25.1474 43.1488 24.7154 45.3887 24.3523 47.5479L24.1917 48.4953V48.543C24.1917 48.6826 24.2147 48.8258 24.2605 48.958C24.3026 49.0938 24.3714 49.2187 24.4593 49.3325C24.5434 49.4463 24.6504 49.5492 24.7689 49.6299C24.8874 49.7144 25.0174 49.7768 25.1588 49.8209C25.2964 49.8576 25.4417 49.876 25.587 49.8686C25.7322 49.8613 25.8737 49.8319 26.0074 49.7805C26.1412 49.7328 26.2674 49.6593 26.3744 49.5675C26.4853 49.4794 26.5808 49.3729 26.6535 49.2517L26.6955 49.2848L29.3178 40.8868H41.9591C42.9224 44.5368 43.9277 48.308 45.2503 51.8442C45.9613 53.7353 47.6165 58.1638 50.3879 58.1858H50.4184C54.7074 58.1858 56.3778 51.2603 57.4826 46.6739C57.7234 45.6862 57.926 44.8343 58.1209 44.21L58.1974 43.9493C58.2025 43.9346 58.2076 43.9199 58.2127 43.9052C58.2152 43.8881 58.2178 43.8722 58.2203 43.8575C58.2229 43.8403 58.2241 43.8244 58.2241 43.8098C58.2267 43.7926 58.228 43.7767 58.228 43.762C58.228 43.6849 58.2127 43.6115 58.1859 43.5417C58.1592 43.4683 58.1209 43.4058 58.0712 43.3471C58.0216 43.2883 57.9642 43.2369 57.8954 43.2002C57.8304 43.1598 57.7578 43.1341 57.6813 43.1194C57.6049 43.1047 57.5284 43.1047 57.452 43.1194C57.3794 43.1341 57.3067 43.1598 57.2379 43.1965C57.1729 43.2332 57.1156 43.281 57.0659 43.3361C57.0162 43.3948 56.978 43.4572 56.9512 43.527L56.8595 43.784C56.4925 44.7902 56.16 45.7449 55.858 46.5895L55.835 46.6556C53.9811 51.9103 53.1363 54.3081 51.4735 54.3081H51.3626C49.2411 54.3081 47.2419 45.6678 46.4888 42.4144C46.355 41.8525 46.2365 41.3348 46.1219 40.8795H59.8679C59.929 40.8795 59.9902 40.8758 60.0513 40.8684C60.1125 40.8611 60.1737 40.8501 60.2348 40.8354C60.2934 40.8207 60.352 40.8023 60.4107 40.7803C60.4693 40.7583 60.5253 40.7326 60.5789 40.7032C60.584 40.7007 60.5891 40.6983 60.5941 40.6959C60.5992 40.6934 60.6043 40.6897 60.6094 40.6848C60.6171 40.6824 60.6235 40.6799 60.6286 40.6775C60.6336 40.675 60.6387 40.6714 60.6438 40.6665L60.7126 40.6261L60.7432 40.6041C60.7776 40.582 60.8082 40.5563 60.8388 40.5343L60.8464 40.5269C60.9611 40.4315 61.0605 40.325 61.1446 40.2075Z" fill="#1E61F0"/>
<path d="M37.2039 25.3065C37.4078 25.7276 37.5989 26.1535 37.7773 26.5844C37.9557 27.0152 38.1213 27.451 38.2742 27.8916C38.4271 28.3323 38.566 28.7766 38.6909 29.2246C39.4057 31.3691 40.1664 34.0276 40.9845 37.1305C37.892 37.0828 34.7689 37.046 31.7376 37.0167L30.2048 36.9946C31.9364 30.2234 34.0503 25.0862 35.5946 23.8744C35.6252 23.8524 35.657 23.8328 35.6902 23.8156C35.7233 23.801 35.7577 23.7875 35.7934 23.7753C35.8291 23.763 35.866 23.7532 35.9042 23.7459C35.9399 23.7385 35.9769 23.7349 36.0151 23.7349C36.0712 23.7373 36.1247 23.7471 36.1756 23.7642C36.2292 23.7814 36.2801 23.8034 36.3285 23.8303C36.377 23.8597 36.4203 23.894 36.4585 23.9332C36.4967 23.9699 36.5311 24.0115 36.5617 24.058C36.7885 24.4693 37.0026 24.8854 37.2039 25.3065Z" fill="#1E61F0"/>
<path fill-rule="evenodd" clip-rule="evenodd" d="M69 40.0018C69 56.0156 56.0147 69 39.9981 69C23.9853 69 11 56.0193 11 40.0018C11 23.9844 23.9853 11 39.9981 11C56.0147 11 69 23.9844 69 40.0018ZM61.1446 40.2075C61.2287 40.0863 61.2975 39.9578 61.3434 39.8182C61.3892 39.6824 61.4198 39.5392 61.4236 39.3959C61.4313 39.2527 61.4198 39.1059 61.3854 38.9663C61.351 38.8268 61.3013 38.6909 61.2287 38.5661C61.1561 38.4412 61.0681 38.3274 60.9611 38.2282C60.8579 38.1254 60.7356 38.041 60.6056 37.9712C60.4756 37.9014 60.338 37.85 60.1928 37.8206H60.1278C60.1074 37.8182 60.087 37.8157 60.0666 37.8133C60.0488 37.8108 60.0297 37.8084 60.0093 37.806C59.9915 37.806 59.9723 37.8047 59.952 37.8023C59.9316 37.8023 59.9125 37.8023 59.8946 37.8023L59.6882 37.7839C54.8335 37.4314 49.8374 37.2919 45.1471 37.1964L45.1395 37.1633C42.8574 28.6038 40.0096 19.8533 36.1679 19.8533C32.5861 19.8643 29.3522 25.6221 26.5694 36.943C24.6046 36.921 22.8041 36.8953 21.1107 36.8659H20.8508C20.7998 36.8635 20.7476 36.8622 20.6941 36.8622C20.6431 36.8647 20.5921 36.8671 20.5412 36.8696C20.4876 36.8696 20.4354 36.872 20.3844 36.8769C20.3309 36.8818 20.2787 36.8867 20.2277 36.8916C19.7537 36.9944 19.3332 37.2515 19.0351 37.615C18.7331 37.9822 18.5764 38.4375 18.584 38.9039C18.5916 39.3702 18.7675 39.8182 19.0771 40.1744C19.3906 40.5306 19.8187 40.773 20.2965 40.8611L20.3156 40.8831H25.6443C25.1474 43.1488 24.7154 45.3887 24.3523 47.5479L24.1917 48.4953V48.543C24.1917 48.6826 24.2147 48.8258 24.2605 48.958C24.3026 49.0938 24.3714 49.2187 24.4593 49.3325C24.5434 49.4463 24.6504 49.5492 24.7689 49.6299C24.8874 49.7144 25.0174 49.7768 25.1588 49.8209C25.2964 49.8576 25.4417 49.876 25.587 49.8686C25.7322 49.8613 25.8737 49.8319 26.0074 49.7805C26.1412 49.7328 26.2674 49.6593 26.3744 49.5675C26.4853 49.4794 26.5808 49.3729 26.6535 49.2517L26.6955 49.2848L29.3178 40.8868H41.9591C42.9224 44.5368 43.9277 48.308 45.2503 51.8442C45.9613 53.7353 47.6165 58.1638 50.3879 58.1858H50.4184C54.7074 58.1858 56.3778 51.2603 57.4826 46.6739C57.7234 45.6862 57.926 44.8343 58.1209 44.21L58.1974 43.9493C58.2025 43.9346 58.2076 43.9199 58.2127 43.9052C58.2152 43.8881 58.2178 43.8722 58.2203 43.8575C58.2229 43.8403 58.2241 43.8244 58.2241 43.8098C58.2267 43.7926 58.228 43.7767 58.228 43.762C58.228 43.6849 58.2127 43.6115 58.1859 43.5417C58.1592 43.4683 58.1209 43.4058 58.0712 43.3471C58.0216 43.2883 57.9642 43.2369 57.8954 43.2002C57.8304 43.1598 57.7578 43.1341 57.6813 43.1194C57.6049 43.1047 57.5284 43.1047 57.452 43.1194C57.3794 43.1341 57.3067 43.1598 57.2379 43.1965C57.1729 43.2332 57.1156 43.281 57.0659 43.3361C57.0162 43.3948 56.978 43.4572 56.9512 43.527L56.8595 43.784C56.4925 44.7902 56.16 45.7449 55.858 46.5895L55.835 46.6556C53.9811 51.9103 53.1363 54.3081 51.4735 54.3081H51.3626C49.2411 54.3081 47.2419 45.6678 46.4888 42.4144C46.355 41.8525 46.2365 41.3348 46.1219 40.8795H59.8679C59.929 40.8795 59.9902 40.8758 60.0513 40.8684C60.1125 40.8611 60.1737 40.8501 60.2348 40.8354C60.2934 40.8207 60.352 40.8023 60.4107 40.7803C60.4693 40.7583 60.5253 40.7326 60.5789 40.7032C60.584 40.7007 60.5891 40.6983 60.5941 40.6959C60.5992 40.6934 60.6043 40.6897 60.6094 40.6848C60.6171 40.6824 60.6235 40.6799 60.6286 40.6775C60.6336 40.675 60.6387 40.6714 60.6438 40.6665L60.7126 40.6261L60.7432 40.6041C60.7776 40.582 60.8082 40.5563 60.8388 40.5343L60.8464 40.5269C60.9611 40.4315 61.0605 40.325 61.1446 40.2075Z" fill="#1E61F0"/>
</svg>
