<svg width="80" height="80" viewBox="0 0 80 80" fill="none" xmlns="http://www.w3.org/2000/svg">
<path d="M37.1091 44.3636C37.6 39.6727 40.5455 35.8545 43.9818 35.8545C47.4182 35.8545 49.2727 39.6727 48.7818 44.3636C48.2909 49.0545 45.4545 52.9273 42.2364 52.9273C39.0182 52.9273 36.4 49.9818 37.1091 44.3636ZM40 65.6364C32.3641 65.6473 25.1226 62.2465 20.2545 56.3636C24.5091 57.7273 29.2545 56.5273 32.9636 52.8727C33.3553 52.4798 33.7198 52.0606 34.0545 51.6182C35.7455 55.2727 39.0182 57.1273 42.2909 57.1273C47.8545 57.1273 52.5455 51.4 53.0909 44.3091C53.6364 37.2182 49.6545 31.6 44.3636 31.6C42.4438 31.5734 40.5547 32.0835 38.9091 33.0727L40.5455 23.5273C40.7086 22.7632 40.5292 21.966 40.0545 21.3455C39.5636 20.5818 39.1273 20.2545 38.4727 20.2545L30.8364 20.2545C30.3849 20.2781 30.0162 20.6237 29.9636 21.0727C29.7607 21.9717 29.615 22.8826 29.5273 23.8C29.4727 24.4 29.9091 24.6182 30.4 24.6182L35.9636 24.6182C35.0909 30.0727 33.3455 40.6545 32.8545 43.3273C32.3399 45.8571 31.1093 48.1859 29.3091 50.0364C26.2545 53.0909 20.6364 53.8 17.3091 50.4727C16.1636 49.2727 14.3636 46.3273 14.3636 40C14.3636 25.8414 25.8414 14.3636 40 14.3636C54.1586 14.3636 65.6364 25.8414 65.6364 40C65.6364 54.1586 54.1586 65.6364 40 65.6364ZM40 10C23.4315 10 10 23.4315 10 40C10 56.5685 23.4315 70 40 70C56.5685 70 70 56.5685 70 40C70 32.0435 66.8393 24.4129 61.2132 18.7868C55.5871 13.1607 47.9565 10 40 10Z" fill="#1F1F47"/>
</svg>
