<svg width="80" height="80" viewBox="0 0 80 80" fill="none" xmlns="http://www.w3.org/2000/svg">
<g clip-path="url(#clip0_101_2413)">
<path d="M23.422 47.5357C23.422 50.8695 20.7276 53.564 17.3937 53.564C14.0598 53.564 11.3654 50.8695 11.3654 47.5357C11.3654 44.2018 14.0598 41.5073 17.3937 41.5073H23.422V47.5357ZM26.4362 47.5357C26.4362 44.2018 29.1307 41.5073 32.4646 41.5073C35.7984 41.5073 38.4929 44.2018 38.4929 47.5357V62.6065C38.4929 65.9404 35.7984 68.6349 32.4646 68.6349C29.1307 68.6349 26.4362 65.9404 26.4362 62.6065V47.5357Z" fill="#E01E5A"/>
<path d="M32.4646 23.3306C29.1307 23.3306 26.4362 20.6361 26.4362 17.3023C26.4362 13.9684 29.1307 11.2739 32.4646 11.2739C35.7984 11.2739 38.4929 13.9684 38.4929 17.3023V23.3306H32.4646ZM32.4646 26.3905C35.7984 26.3905 38.4929 29.085 38.4929 32.4188C38.4929 35.7527 35.7984 38.4472 32.4646 38.4472H17.348C14.0142 38.4472 11.3197 35.7527 11.3197 32.4188C11.3197 29.085 14.0142 26.3905 17.348 26.3905H32.4646Z" fill="#36C5F0"/>
<path d="M56.6236 32.4188C56.6236 29.085 59.3181 26.3905 62.6519 26.3905C65.9858 26.3905 68.6803 29.085 68.6803 32.4188C68.6803 35.7527 65.9858 38.4472 62.6519 38.4472H56.6236V32.4188ZM53.6094 32.4188C53.6094 35.7527 50.9149 38.4472 47.5811 38.4472C44.2472 38.4472 41.5527 35.7527 41.5527 32.4188V17.3023C41.5527 13.9684 44.2472 11.2739 47.5811 11.2739C50.9149 11.2739 53.6094 13.9684 53.6094 17.3023V32.4188Z" fill="#2EB67D"/>
<path d="M47.5811 56.5782C50.9149 56.5782 53.6094 59.2727 53.6094 62.6065C53.6094 65.9404 50.9149 68.6349 47.5811 68.6349C44.2472 68.6349 41.5527 65.9404 41.5527 62.6065V56.5782H47.5811ZM47.5811 53.564C44.2472 53.564 41.5527 50.8695 41.5527 47.5357C41.5527 44.2018 44.2472 41.5073 47.5811 41.5073H62.6976C66.0315 41.5073 68.726 44.2018 68.726 47.5357C68.726 50.8695 66.0315 53.564 62.6976 53.564H47.5811Z" fill="#ECB22E"/>
</g>
<defs>
<clipPath id="clip0_101_2413">
<rect width="58" height="58" fill="white" transform="translate(11 11)"/>
</clipPath>
</defs>
</svg>
